<?xml version="1.0" encoding="UTF-8"?>
<svg xmlns="http://www.w3.org/2000/svg" xmlns:xlink="http://www.w3.org/1999/xlink" width="100pt" height="100pt" viewBox="0 0 100 100" version="1.1">
<g id="surface605772">
<path style=" stroke:none;fill-rule:nonzero;fill:rgb(98.039216%,98.039216%,99.215686%);fill-opacity:1;" d="M 50 10 C 27.910156 10 10 27.910156 10 50 C 10 72.089844 27.910156 90 50 90 C 72.089844 90 90 72.089844 90 50 C 90 27.910156 72.089844 10 50 10 Z M 80.28125 36.144531 C 80.289062 36.464844 80.339844 36.738281 80.339844 37.070312 C 80.339844 40.546875 79.6875 44.460938 77.730469 49.359375 L 67.773438 78.148438 C 65.660156 79.488281 63.390625 80.589844 60.992188 81.429688 L 50.605469 52.992188 L 40.636719 81.964844 C 38.503906 81.339844 36.460938 80.511719 34.527344 79.492188 L 19.15625 37.402344 C 20.058594 35.199219 21.1875 33.117188 22.515625 31.175781 C 22.855469 31.183594 23.238281 31.191406 23.539062 31.191406 C 27.125 31.191406 32.683594 30.757812 32.683594 30.757812 C 34.535156 30.652344 34.75 33.367188 32.902344 33.585938 C 32.902344 33.585938 31.042969 33.804688 28.976562 33.914062 L 41.46875 71.082031 L 48.976562 48.558594 L 43.636719 33.90625 C 41.785156 33.804688 40.035156 33.585938 40.035156 33.585938 C 38.183594 33.476562 38.40625 30.648438 40.253906 30.757812 C 40.253906 30.757812 45.921875 31.191406 49.285156 31.191406 C 52.875 31.191406 58.429688 30.757812 58.429688 30.757812 C 60.285156 30.652344 60.496094 33.367188 58.648438 33.585938 C 58.648438 33.585938 56.785156 33.804688 54.722656 33.914062 L 67.125 70.800781 L 70.550781 59.351562 C 72.289062 54.898438 73.160156 51.207031 73.160156 48.261719 C 73.160156 44.023438 71.640625 41.085938 70.328125 38.804688 C 68.59375 35.972656 66.957031 33.582031 66.957031 30.753906 C 66.957031 27.921875 68.890625 25.285156 71.726562 24.773438 C 75.339844 27.894531 78.265625 31.761719 80.28125 36.144531 Z M 80.28125 36.144531 "/>
</g>
</svg>
