<?xml version="1.0" encoding="UTF-8"?>
<svg xmlns="http://www.w3.org/2000/svg" xmlns:xlink="http://www.w3.org/1999/xlink" width="100pt" height="100pt" viewBox="0 0 100 100" version="1.1">
<g id="surface590039">
<path style=" stroke:none;fill-rule:nonzero;fill:rgb(98.039216%,98.039216%,99.215686%);fill-opacity:1;" d="M 50 4 C 24.636719 4 4 24.636719 4 50 C 4 75.363281 24.636719 96 50 96 C 75.363281 96 96 75.363281 96 50 C 96 24.636719 75.363281 4 50 4 Z M 61.296875 18.003906 C 68.941406 17.875 75.246094 20.660156 76.5625 25.828125 C 78.449219 33.222656 72.03125 42.0625 63.8125 45.242188 C 56.472656 48.082031 50.40625 47.632812 47.914062 46.816406 C 45.078125 45.886719 43.417969 44.015625 43.015625 42.960938 C 42.859375 42.546875 42.582031 41.855469 43.015625 41.617188 C 43.28125 41.46875 43.386719 41.503906 44.097656 42.289062 C 44.777344 43.035156 47.496094 45.039062 52.664062 44.460938 C 66.230469 42.941406 74.398438 32.398438 71.816406 26.726562 C 70.007812 22.757812 59.554688 20.96875 46.492188 27.476562 C 30.546875 35.421875 29.683594 41.972656 29.546875 44.460938 C 29.171875 51.304688 37.992188 54.902344 42.761719 59.992188 C 42.875 60.113281 42.980469 60.234375 43.089844 60.355469 C 44.535156 59.816406 46.53125 59.515625 49.710938 59.460938 C 57.425781 59.328125 61.785156 64.414062 61.605469 68.960938 C 61.464844 72.542969 58.179688 74.019531 57.566406 74.121094 C 57.121094 74.195312 56.878906 74.210938 56.816406 73.863281 C 56.773438 73.625 56.933594 73.511719 57.453125 73.1875 C 57.972656 72.867188 59.53125 71.800781 59.808594 69.859375 C 60.085938 67.917969 58.632812 63.28125 51.207031 62.414062 C 48.574219 62.105469 46.503906 62.316406 44.726562 62.785156 C 46.015625 65.625 46.261719 71.332031 43.300781 75.753906 C 40.230469 80.332031 34.515625 83.117188 28.949219 81.566406 C 27.152344 81.066406 24.433594 77.355469 26.777344 72.179688 C 28.996094 67.273438 38.480469 62.472656 39.773438 61.835938 L 39.773438 61.8125 C 35.378906 58.03125 24.695312 52.933594 23.1875 45.132812 C 22.757812 42.921875 23.796875 37.628906 30.292969 31.550781 C 35.757812 26.4375 43.363281 22.523438 50.382812 20.03125 C 54.070312 18.722656 57.820312 18.0625 61.296875 18.003906 Z M 41.597656 64.144531 C 41.46875 64.214844 41.339844 64.289062 41.210938 64.355469 L 41.214844 64.371094 C 41.21875 64.367188 36.800781 66.453125 33.734375 69.695312 C 30.882812 72.710938 30.089844 76.492188 31.679688 77.414062 C 33.152344 78.269531 36.585938 77.257812 39.046875 74.574219 C 39.851562 73.695312 40.511719 72.742188 41.003906 71.722656 C 41.101562 71.519531 41.191406 71.3125 41.277344 71.105469 C 41.363281 70.898438 41.441406 70.6875 41.511719 70.472656 C 42.148438 68.546875 42.214844 66.421875 41.597656 64.144531 Z M 41.597656 64.144531 "/>
</g>
</svg>
